<?xml version="1.0" encoding="UTF-8"?> <svg xmlns="http://www.w3.org/2000/svg" width="80" height="80" viewBox="0 0 80 80" fill="none"><path d="M75 15H69C69.7681 13.7908 69.8555 12.4355 70 11C70.4617 6.41228 68.1351 2.82328 64 0.999985C60.1991 -0.675972 56.0758 0.225012 53 2.99998L46 8.99998C44.568 7.442 42.2847 6.99998 40 6.99998C37.7113 6.99998 35.4323 7.43718 34 8.99998L27 2.99998C23.9192 0.225012 19.7992 -0.67504 16 0.999985C11.8659 2.82344 9.53688 6.41244 10 11C10.1448 12.4344 10.232 13.7914 11 15H5C2.11844 15 0 18.1338 0 21V28C0 29.433 1.55922 31 3 31H77C78.4406 31 80 29.4332 80 28V21C79.9998 18.1338 77.8816 15 75 15ZM32 15H20C16.7575 15 14.1902 12.3581 15 8.99998C15.3567 7.52111 16.612 6.63816 18 5.99998C19.9059 5.12369 21.3992 5.55872 23 6.99998L32 14C31.9995 14.0256 32 14.9743 32 15ZM65 11C64.8056 13.6971 62.7183 15 60 15H48C48 14.9694 48.0003 14.0306 48 14L57 6.99998C58.3366 5.79497 59.2713 4.48708 61 4.99998C63.4808 5.73608 65.1814 8.48286 65 11Z" fill="white"></path><path d="M5 75V37H35V80H10C7.10043 80 5 77.8499 5 75Z" fill="#33F473"></path><path d="M45 80V37H75V75C75 77.8499 72.8996 80 70 80H45Z" fill="#33F473"></path></svg> 