<?xml version="1.0" encoding="UTF-8"?> <svg xmlns="http://www.w3.org/2000/svg" width="40" height="60" viewBox="0 0 40 60" fill="none"><rect width="40" height="60" fill="black"></rect><path d="M7.99999 38.9998V41.9998C7.99999 42.5499 8.48224 42.9998 8.99999 42.9998H31C31.5177 42.9998 32 42.5499 32 41.9998V38.9998H7.99999ZM36 20.9998C35.8349 20.8872 35.1959 20.9889 35 20.9998C34.8041 21.0106 34.1532 20.8696 34 20.9998L28 26.9998C27.839 27.1367 27.0494 27.787 27 27.9998C26.9174 27.799 26.9506 28.2125 27 27.9998C27.1041 28.2524 28.0004 28.724 28 28.9998C28 30.1053 27.0403 30.9998 26 30.9998C24.9597 30.9998 24 30.1053 24 28.9998C24 28.3494 24.4979 27.376 25 26.9998C24.9453 27.2309 25.1833 26.8624 25 26.9998C25.0547 26.7687 25.1003 26.2129 25 25.9998L21 17.9998C20.9221 17.8343 20.1481 17.0971 20 16.9998C19.8519 16.9025 20.1741 16.9998 20 16.9998C19.8259 16.9998 20.1481 16.9025 20 16.9998C19.8519 17.0971 19.0778 17.8343 19 17.9998L15 25.9998C14.8997 26.2129 14.9453 26.7687 15 26.9998C14.8167 26.8624 15.0547 27.2309 15 26.9998C15.5021 27.376 16 28.3494 16 28.9998C16 30.1053 15.0404 30.9998 14 30.9998C12.9596 30.9998 12 30.1053 12 28.9998C12 28.7216 12.8957 28.2533 13 27.9998C13.0494 28.2125 13.0826 27.799 13 27.9998C12.9506 27.787 12.161 27.1367 12 26.9998L5.99999 20.9998C5.84682 20.8696 5.19589 21.0106 4.99999 20.9998C4.8041 20.9889 4.16509 20.8872 3.99999 20.9998C3.8349 21.1123 4.07233 21.806 3.99999 21.9998C3.92766 22.1935 3.95241 21.7976 3.99999 21.9998L7.99999 36.9998H32L36 21.9998C36.0476 21.7976 36.0723 22.1935 36 21.9998C35.9277 21.806 36.1651 21.1123 36 20.9998Z" fill="white"></path></svg> 