<?xml version="1.0" encoding="UTF-8"?> <svg xmlns="http://www.w3.org/2000/svg" width="62" height="64" viewBox="0 0 62 64" fill="none"><path d="M1 20V0M21 0.5H1" stroke="#33F473"></path><path d="M61 40V60H41" stroke="#33F473"></path><g clip-path="url(#clip0_140_81)"><path d="M41.905 23.7164L44.0605 21.5609L41.9395 19.4391L39.6336 21.745C37.5271 20.2522 35.069 19.3321 32.5 19.075V16H35.5V13H26.5V16H29.5V19.075C26.931 19.3321 24.4729 20.2522 22.3664 21.745L20.0605 19.4391L17.9395 21.5609L20.095 23.7164C18.083 25.8467 16.739 28.5196 16.229 31.4052C15.7189 34.2907 16.0653 37.2625 17.2251 39.9534C18.385 42.6443 20.3077 44.9366 22.7557 46.5471C25.2036 48.1577 28.0697 49.0159 31 49.0159C33.9303 49.0159 36.7964 48.1577 39.2444 46.5471C41.6923 44.9366 43.615 42.6443 44.7749 39.9534C45.9348 37.2625 46.2811 34.2907 45.7711 31.4052C45.2611 28.5196 43.917 25.8467 41.905 23.7164ZM31 46C28.6266 46 26.3066 45.2962 24.3332 43.9776C22.3598 42.6591 20.8217 40.7849 19.9135 38.5922C19.0052 36.3995 18.7676 33.9867 19.2306 31.6589C19.6936 29.3311 20.8365 27.1929 22.5147 25.5147C24.193 23.8365 26.3312 22.6936 28.6589 22.2306C30.9867 21.7676 33.3995 22.0052 35.5922 22.9134C37.7849 23.8217 39.6591 25.3598 40.9776 27.3332C42.2962 29.3065 43 31.6266 43 34C42.9964 37.1815 41.731 40.2317 39.4813 42.4813C37.2317 44.731 34.1815 45.9964 31 46Z" fill="white"></path><path d="M31 25V34H22C22 35.78 22.5278 37.5201 23.5168 39.0001C24.5057 40.4802 25.9113 41.6337 27.5558 42.3149C29.2004 42.9961 31.01 43.1743 32.7558 42.8271C34.5016 42.4798 36.1053 41.6226 37.364 40.364C38.6226 39.1053 39.4798 37.5016 39.8271 35.7558C40.1743 34.01 39.9961 32.2004 39.3149 30.5558C38.6337 28.9113 37.4802 27.5057 36.0001 26.5168C34.5201 25.5278 32.78 25 31 25Z" fill="#33F473"></path></g><line x1="5" y1="4.5" x2="15" y2="4.5" stroke="#33F473"></line><line x1="48" y1="63.5" x2="55" y2="63.5" stroke="#33F473"></line><defs><clipPath id="clip0_140_81"><rect width="36" height="36" fill="white" transform="translate(13 13)"></rect></clipPath></defs></svg> 