<?xml version="1.0" encoding="UTF-8"?> <svg xmlns="http://www.w3.org/2000/svg" width="62" height="64" viewBox="0 0 62 64" fill="none"><path d="M1 20V0M21 0.5H1" stroke="#33F473"></path><path d="M61 40V60M41 59.5H61" stroke="#33F473"></path><line x1="5" y1="4.5" x2="15" y2="4.5" stroke="#33F473"></line><line x1="48" y1="63.5" x2="55" y2="63.5" stroke="#33F473"></line><path d="M40.7145 27.3572C40.5268 27.2082 39.7252 27.2883 39.5002 27.3572C37.5672 27.9351 34.5682 28.5715 31.0002 28.5715C27.4265 28.5715 24.4304 27.9365 22.5002 27.3572C22.1162 27.2377 21.402 26.9874 21.2859 27.3572C21.2501 27.4781 21.2602 28.4576 21.2859 28.5715C22.4437 40.4103 26.3519 48.0001 31.0002 48.0001C35.6615 48.0001 39.5696 40.4568 40.7145 28.5715C40.7257 28.4567 40.7597 27.4636 40.7145 27.3572C40.8055 27.4302 40.6693 27.2508 40.7145 27.3572Z" fill="white"></path><path d="M24.9289 45.5714C22.7114 42.2352 20.8972 37.5167 20.0718 31C20.0223 30.6119 20.4562 29.7375 20.0718 29.7857C19.6859 29.8353 18.808 30.6119 18.8575 31C19.7111 37.7292 21.3784 43.271 23.7146 46.7857C23.8532 46.9911 24.7013 46.7857 24.9289 46.7857C24.8088 46.8665 25.0646 46.7857 24.9289 46.7857C25.2526 46.569 25.1451 45.8972 24.9289 45.5714ZM41.9289 29.7857C41.5473 29.7376 41.9798 30.6119 41.9289 31C41.1035 37.5167 39.2893 42.2352 37.0718 45.5714C36.8555 45.8973 36.7467 46.5704 37.0718 46.7857C36.9319 46.7861 37.188 46.8637 37.0718 46.7857C37.2993 46.7857 38.1489 46.9911 38.286 46.7857C40.6223 43.271 42.2909 37.7292 43.1432 31C43.1927 30.6119 42.3162 29.8353 41.9289 29.7857Z" fill="#33F473"></path><path d="M22.501 22.5C22.501 19.0776 25.4547 14 31.001 14C36.2512 14 39.501 18.5745 39.501 22.5C39.501 24.4398 38.3974 27.3571 31.001 27.3571C23.6046 27.3571 22.501 24.4398 22.501 22.5Z" fill="#33F473"></path><rect x="26.1426" y="20.0714" width="9.71429" height="2.42857" rx="1.21429" fill="black"></rect></svg> 