<?xml version="1.0" encoding="UTF-8"?> <svg xmlns="http://www.w3.org/2000/svg" width="77" height="77" viewBox="0 0 77 77" fill="none"><path d="M65 7H62V3C62 1.10656 60.925 0 59 0C57.075 0 56 1.10656 56 3V7H48V3C48 1.10656 46.925 0 45 0C43.075 0 42 1.10656 42 3V7H35V3C35 1.10656 32.925 0 31 0C29.075 0 28 1.10656 28 3V7H21V3C21 1.10656 19.925 0 18 0C16.075 0 15 1.10656 15 3V7H12C5.2625 7 0 12.373 0 19V65C0 71.627 5.2625 77 12 77H65C71.7375 77 77 71.627 77 65V19C77 16.4754 76.6042 13.8934 75 12C73.075 8.52869 69.1708 7 65 7ZM71 65C71 68.1557 68.2083 71 65 71H12C8.79167 71 6 68.1557 6 65V28H71V65Z" fill="#33F473"></path><path d="M17 47H25C25.895 47 26 46.8969 26 46V38C26 37.1031 25.895 36 25 36H17C16.105 36 15 37.1031 15 38V46C14.7017 46.8969 15.8067 47 17 47ZM34 47H42C42.895 47 44 46.8969 44 46V38C44 37.1031 42.895 36 42 36H34C33.105 36 32 37.1031 32 38V46C32 46.8969 33.105 47 34 47ZM51 47H59C59.895 47 61 46.8969 61 46V38C61 37.1031 59.895 36 59 36H51C50.105 36 50 37.1031 50 38V46C50 46.8969 50.105 47 51 47ZM17 65H25C25.895 65 26 63.8969 26 63V55C26 54.1031 25.895 54 25 54H17C16.105 54 15 54.1031 15 55V63C14.7017 63.8969 15.8067 65 17 65Z" fill="white"></path><path d="M43 64H35C34.0938 64 33 62.8684 33 62V55C33 54.1316 34.0938 53 35 53H43C43.9062 53 44 54.1316 44 55V62C44 62.8684 43.9062 64 43 64Z" fill="#33F473"></path><path d="M60 64H52C51.0938 64 51 62.8684 51 62V55C51 54.1316 51.0938 53 52 53H60C60.9062 53 62 54.1316 62 55V62C62 62.8684 60.9062 64 60 64Z" fill="#33F473"></path></svg> 