<?xml version="1.0" encoding="UTF-8"?> <svg xmlns="http://www.w3.org/2000/svg" width="62" height="64" viewBox="0 0 62 64" fill="none"><path d="M1 20V0M21 0.5H1" stroke="#33F473"></path><path d="M61 40V60H41.5" stroke="#33F473"></path><g clip-path="url(#clip0_140_548)"><path d="M46.725 20.3027L39.6958 13.2736C39.3467 12.9104 38.719 12.9105 38.37 13.2736L31.3408 20.3027C31.2098 20.4338 31.1205 20.6009 31.0844 20.7827C31.0483 20.9646 31.0668 21.153 31.1378 21.3243C31.2087 21.4956 31.3288 21.642 31.483 21.745C31.6371 21.8481 31.8183 21.9031 32.0037 21.9032H35.0829V44.0615C35.0829 44.5792 35.5027 44.999 36.0204 44.999H42.0454C42.5632 44.999 42.9829 44.5792 42.9829 44.0615V21.9032H46.0621C46.2475 21.9031 46.4288 21.8482 46.5829 21.7451C46.7371 21.6421 46.8573 21.4957 46.9282 21.3244C46.9992 21.1531 47.0177 20.9646 46.9816 20.7827C46.9454 20.6009 46.8561 20.4338 46.725 20.3027Z" fill="#33F473"></path><path d="M32.0042 26.053H25.9792C25.4614 26.053 25.0417 26.4727 25.0417 26.9905V44.0613C25.0417 44.579 25.4614 44.9988 25.9792 44.9988H32.0042C32.5219 44.9988 32.9417 44.579 32.9417 44.0613V26.9905C32.9417 26.4727 32.5219 26.053 32.0042 26.053ZM21.9625 34.0863H15.9375C15.4197 34.0863 15 34.506 15 35.0238V44.0613C15 44.579 15.4197 44.9988 15.9375 44.9988H21.9625C22.4803 44.9988 22.9 44.579 22.9 44.0613V35.0238C22.9 34.506 22.4803 34.0863 21.9625 34.0863Z" fill="white"></path></g><line x1="5" y1="4.5" x2="15" y2="4.5" stroke="#33F473"></line><line x1="48" y1="63.5" x2="55" y2="63.5" stroke="#33F473"></line><defs><clipPath id="clip0_140_548"><rect width="32" height="32" fill="white" transform="translate(15 13)"></rect></clipPath></defs></svg> 