<?xml version="1.0" encoding="UTF-8"?> <svg xmlns="http://www.w3.org/2000/svg" xmlns:xlink="http://www.w3.org/1999/xlink" xmlns:svgjs="http://svgjs.dev/svgjs" version="1.1" width="512" height="512"><svg xmlns="http://www.w3.org/2000/svg" width="512" height="512" viewBox="0 0 512 512" fill="none"><g clip-path="url(#clip0_100_2)"><rect width="512" height="512" fill="#33F473"></rect><path d="M212.484 257.708H189.61L222.979 325.905C223.876 327.163 226.118 328.241 229.706 329.14C233.294 330.038 237.6 330.757 242.623 331.296C247.826 331.835 253.387 332.284 259.307 332.644C265.228 333.003 270.969 333.273 276.53 333.453C282.091 333.632 287.115 333.812 291.6 333.992C296.085 334.171 299.404 334.351 301.556 334.531V341H167.275V336.148C175.168 335.968 180.371 335.16 182.883 333.722C185.394 332.284 186.65 329.948 186.65 326.714C186.65 325.815 186.471 324.647 186.112 323.209C185.753 321.592 185.125 319.436 184.228 316.74C183.331 313.865 181.986 310.271 180.192 305.958C178.398 301.466 176.065 295.985 173.195 289.515H89.7736L73.3585 321.323C72.6409 323.479 71.8336 325.456 70.9366 327.253C70.0396 328.87 69.591 330.398 69.591 331.835C69.591 333.273 70.3087 334.351 71.7439 335.07C73.1791 335.789 75.7804 336.148 79.5478 336.148V341H37.2989V334.261C40.5281 334.261 43.3985 333.453 45.9101 331.835C48.4217 330.218 50.8437 328.061 53.1759 325.366C55.6875 322.491 58.1094 319.166 60.4416 315.392C62.9532 311.439 65.7339 307.216 68.7837 302.723L121.797 194.363H-1V188.163H151.936V180.077H169.159L212.484 257.708ZM168.351 281.429L129.601 207.302L94.6175 281.429H168.351Z" fill="black"></path><path d="M410.351 341H274.455V334.531H314.282V330.487C317.691 329.948 320.651 329.23 323.162 328.331C325.674 327.432 327.737 326.175 329.352 324.557C331.146 322.76 332.491 320.424 333.388 317.549C334.285 314.674 334.734 311.08 334.734 306.767V186.277C334.734 180.885 334.375 176.393 333.657 172.799C332.94 169.205 331.594 166.419 329.621 164.443C327.647 162.286 324.956 160.759 321.548 159.86C318.318 158.962 314.102 158.513 308.9 158.513H301.903V153.122H367.295V148H435.647V154.469H396.896V158.782H393.667C388.644 158.782 384.517 159.231 381.288 160.13C378.059 161.028 375.458 162.556 373.484 164.712C371.511 166.869 370.076 169.744 369.179 173.338C368.461 176.932 368.102 181.425 368.102 186.816V311.619C368.102 317.01 369.089 321.323 371.062 324.557C373.036 327.612 375.637 329.948 378.866 331.566C382.275 333.003 386.132 333.902 390.438 334.261C394.923 334.621 399.677 334.8 404.7 334.8H410.351V341Z" fill="black"></path><path d="M395.828 341V334.531H518V340.73L395.828 341Z" fill="black"></path></g><defs><clipPath id="SvgjsClipPath1001"><rect width="512" height="512" fill="white"></rect></clipPath></defs></svg><style>@media (prefers-color-scheme: light) { :root { filter: none; } } @media (prefers-color-scheme: dark) { :root { filter: none; } } </style></svg> 