<?xml version="1.0" encoding="UTF-8"?> <svg xmlns="http://www.w3.org/2000/svg" width="62" height="65" viewBox="0 0 62 65" fill="none"><path d="M1 21V1H21" stroke="#33F473"></path><path d="M61 41V61H41" stroke="#33F473"></path><line x1="5" y1="5.5" x2="15" y2="5.5" stroke="#33F473"></line><line x1="48" y1="64.5" x2="55" y2="64.5" stroke="#33F473"></line><path d="M49.25 43H45.5V39.25C45.5 38.9185 45.3683 38.6005 45.1339 38.3661C44.8995 38.1317 44.5815 38 44.25 38C43.9185 38 43.6005 38.1317 43.3661 38.3661C43.1317 38.6005 43 38.9185 43 39.25V43H39.25C38.9185 43 38.6005 43.1317 38.3661 43.3661C38.1317 43.6005 38 43.9185 38 44.25C38 44.5815 38.1317 44.8995 38.3661 45.1339C38.6005 45.3683 38.9185 45.5 39.25 45.5H43V49.25C43 49.5815 43.1317 49.8995 43.3661 50.1339C43.6005 50.3683 43.9185 50.5 44.25 50.5C44.5815 50.5 44.8995 50.3683 45.1339 50.1339C45.3683 49.8995 45.5 49.5815 45.5 49.25V45.5H49.25C49.5815 45.5 49.8995 45.3683 50.1339 45.1339C50.3683 44.8995 50.5 44.5815 50.5 44.25C50.5 43.9185 50.3683 43.6005 50.1339 43.3661C49.8995 43.1317 49.5815 43 49.25 43ZM34.25 43H19.25C18.9185 43 18.6005 42.8683 18.3661 42.6339C18.1317 42.3995 18 42.0815 18 41.75V19.25C18 18.9185 18.1317 18.6005 18.3661 18.3661C18.6005 18.1317 18.9185 18 19.25 18H41.75C42.0815 18 42.3995 18.1317 42.6339 18.3661C42.8683 18.6005 43 18.9185 43 19.25V34.25C43 34.5815 43.1317 34.8995 43.3661 35.1339C43.6005 35.3683 43.9185 35.5 44.25 35.5C44.5815 35.5 44.8995 35.3683 45.1339 35.1339C45.3683 34.8995 45.5 34.5815 45.5 34.25V19.25C45.5 18.2554 45.1049 17.3016 44.4017 16.5983C43.6984 15.8951 42.7446 15.5 41.75 15.5H19.25C18.2554 15.5 17.3016 15.8951 16.5983 16.5983C15.8951 17.3016 15.5 18.2554 15.5 19.25V41.75C15.5 42.7446 15.8951 43.6984 16.5983 44.4017C17.3016 45.1049 18.2554 45.5 19.25 45.5H34.25C34.5815 45.5 34.8995 45.3683 35.1339 45.1339C35.3683 44.8995 35.5 44.5815 35.5 44.25C35.5 43.9185 35.3683 43.6005 35.1339 43.3661C34.8995 43.1317 34.5815 43 34.25 43Z" fill="white"></path><path d="M26.75 26.75C28.4759 26.75 29.875 25.3509 29.875 23.625C29.875 21.8991 28.4759 20.5 26.75 20.5C25.0241 20.5 23.625 21.8991 23.625 23.625C23.625 25.3509 25.0241 26.75 26.75 26.75Z" fill="#33F473"></path><path d="M22.1125 30.8624L20.5 32.4874V40.4999H40.5V32.4874L35.1375 27.1124C35.0213 26.9953 34.883 26.9023 34.7307 26.8388C34.5784 26.7753 34.415 26.7427 34.25 26.7427C34.085 26.7427 33.9216 26.7753 33.7693 26.8388C33.617 26.9023 33.4787 26.9953 33.3625 27.1124L26.75 33.7374L23.8875 30.8624C23.7713 30.7453 23.633 30.6523 23.4807 30.5888C23.3284 30.5253 23.165 30.4927 23 30.4927C22.835 30.4927 22.6716 30.5253 22.5193 30.5888C22.367 30.6523 22.2287 30.7453 22.1125 30.8624Z" fill="#33F473"></path></svg> 